# xmcd CD database file
#
# Track frame offsets:
#	150
#	15090
#	34828
#	53065
#	70462
#	86387
#	106123
#	123027
#	145431
#	160409
#	174934
#	193215
#
# Disc length: 2761 seconds
#
# Revision: 3
# Processed by: cddbd v1.5.2PL0 Copyright (c) Steve Scherf et al.
# Submitted via: CDex 1.70beta2
#
DISCID=950ac70c
DTITLE=Modern Talking - The Golden Years CD3
DYEAR=2002
DGENRE=Eurodisco
TTITLE0=Geronimo's Cadillac
TTITLE1=Jet Airliner
TTITLE2=Diamonds never made a Lady
TTITLE3=Riding on a White Swan
TTITLE4=Lonely Tears in Chinatown
TTITLE5=Love don't live here anymore
TTITLE6=In Shaire
TTITLE7=Lady Lai
TTITLE8=Don't give up
TTITLE9=Just like an Angel
TTITLE10=Heaven will know
TTITLE11=Sweet Little Sheila
EXTD=YEAR: 2002
EXTT0=
EXTT1=
EXTT2=
EXTT3=
EXTT4=
EXTT5=
EXTT6=
EXTT7=
EXTT8=
EXTT9=
EXTT10=
EXTT11=
PLAYORDER=
